<svg width="80" height="80" viewBox="0 0 80 80" fill="none" xmlns="http://www.w3.org/2000/svg">
<path fill-rule="evenodd" clip-rule="evenodd" d="M71.13 39.92C71.132 47.1242 68.636 54.1063 64.0673 59.6765C59.4987 65.2468 53.14 69.0607 46.0747 70.4684C39.0093 71.8761 31.6745 70.7905 25.3198 67.3965C18.9651 64.0026 13.9838 58.5103 11.2245 51.8554C8.46528 45.2006 8.0988 37.7949 10.1875 30.9001C12.2763 24.0054 16.691 18.0481 22.6795 14.0433C28.6681 10.0386 35.8599 8.2341 43.0297 8.93734C50.1995 9.64058 56.9037 12.808 62 17.9C64.8923 20.7871 67.1866 24.2164 68.7516 27.9915C70.3165 31.7666 71.1214 35.8134 71.12 39.9" fill="#7CA8F0"/>
<path d="M39.9999 71.94C37.8981 71.9373 35.8015 71.7297 33.7399 71.32C25.7166 69.7141 18.6179 65.0847 13.9132 58.3899C9.20853 51.6952 7.25816 43.4478 8.46581 35.3549C9.67347 27.262 13.9467 19.9433 20.4009 14.9137C26.8551 9.8841 34.9961 7.52877 43.1388 8.33523C51.2814 9.1417 58.8023 13.0482 64.1445 19.2461C69.4867 25.444 72.2412 33.4588 71.8379 41.6313C71.4346 49.8039 67.9044 57.5085 61.9779 63.1503C56.0514 68.7921 48.1825 71.9392 39.9999 71.94ZM39.9999 9.65001C32.994 9.64715 26.2039 12.0737 20.7867 16.5162C15.3694 20.9588 11.6603 27.1423 10.2913 34.0131C8.92229 40.884 9.97819 48.017 13.279 54.1965C16.5799 60.3761 21.9214 65.2198 28.3934 67.9024C34.8654 70.5849 42.0673 70.9403 48.7719 68.9078C55.4765 66.8754 61.2689 62.5809 65.162 56.7563C69.0551 50.9317 70.808 43.9373 70.122 36.9651C69.436 29.9928 66.3536 23.4742 61.3999 18.52C58.5942 15.7032 55.2589 13.4692 51.5862 11.9469C47.9134 10.4246 43.9757 9.64399 39.9999 9.65001Z" fill="#222222"/>
<path fill-rule="evenodd" clip-rule="evenodd" d="M20 63.85C21.1799 60.5993 23.1358 57.6858 25.6976 55.3628C28.2594 53.0397 31.3497 51.3773 34.7 50.52L39.9 47.38L45.2 50.54C48.57 51.4004 51.6756 53.0789 54.2416 55.4268C56.8075 57.7747 58.7545 60.7195 59.91 64C58.71 66.12 38.71 78.69 20.05 63.92L20 63.85Z" fill="white"/>
<path d="M39.78 71.82C32.4184 71.8078 25.2854 69.2619 19.58 64.61L18.96 64.31L19.19 63.55C20.4094 60.1847 22.4281 57.1659 25.0723 54.7534C27.7166 52.3408 30.9072 50.6066 34.37 49.7L39.91 46.36L45.55 49.72C49.0279 50.626 52.231 52.3704 54.879 54.8005C57.527 57.2306 59.5393 60.2724 60.74 63.66L60.87 64.03L60.67 64.38C59.81 65.9 53.94 69.69 46.27 71.19C44.1315 71.6054 41.9584 71.8163 39.78 71.82ZM21.06 63.55C24.4791 66.2581 28.4426 68.1962 32.6795 69.2317C36.9165 70.2672 41.3272 70.3758 45.61 69.55C52.68 68.24 57.74 64.98 58.92 63.81C57.7624 60.7772 55.8942 58.0665 53.472 55.9053C51.0499 53.7442 48.1445 52.1957 45 51.39L44.76 51.29L39.92 48.4L34.92 51.4C31.8156 52.1894 28.9418 53.7016 26.5331 55.8131C24.1244 57.9246 22.249 60.5757 21.06 63.55Z" fill="#222222"/>
<path fill-rule="evenodd" clip-rule="evenodd" d="M54.94 36.1899C54.9331 39.8881 53.5511 43.4515 51.0628 46.1873C48.5745 48.9231 45.1577 50.6358 41.4768 50.9924C37.7959 51.349 34.1139 50.324 31.1468 48.1167C28.1796 45.9094 26.1393 42.6776 25.4226 39.0496C24.7058 35.4215 25.3639 31.6566 27.2688 28.4868C29.1737 25.3171 32.1894 22.9689 35.7294 21.899C39.2694 20.8291 43.0807 21.1139 46.4224 22.698C49.7641 24.2821 52.3973 27.0523 53.81 30.4699C54.5572 32.2843 54.9411 34.2277 54.94 36.1899Z" fill="white"/>
<path d="M40 52C38.9589 52.0009 37.9203 51.897 36.9 51.69C33.0725 50.8965 29.6738 48.7148 27.3587 45.5653C25.0435 42.4157 23.9755 38.5208 24.3604 34.6309C24.7453 30.7409 26.5559 27.1309 29.4434 24.4961C32.3309 21.8613 36.0912 20.388 40 20.36C42.0599 20.3668 44.0985 20.7779 46 21.57C47.941 22.351 49.7032 23.5179 51.18 25C53.385 27.2143 54.8854 30.0316 55.492 33.0971C56.0986 36.1625 55.7844 39.339 54.5889 42.2262C53.3933 45.1134 51.3701 47.5821 48.7739 49.3214C46.1778 51.0607 43.1249 51.9927 40 52ZM40 22.09C37.2185 22.09 34.4994 22.9144 32.1863 24.4591C29.8731 26.0038 28.0697 28.1995 27.0039 30.7687C25.9381 33.3379 25.6578 36.1654 26.1982 38.8939C26.7387 41.6224 28.0758 44.1295 30.0405 46.0984C32.0052 48.0673 34.5094 49.4097 37.2368 49.956C39.9641 50.5022 42.7922 50.2279 45.3636 49.1676C47.9351 48.1072 50.1346 46.3085 51.6842 43.9987C53.2339 41.6888 54.0641 38.9715 54.07 36.19C54.0713 34.3414 53.7084 32.5108 53.0019 30.8026C52.2954 29.0944 51.2592 27.5421 49.9526 26.2345C48.6459 24.9269 47.0944 23.8897 45.3867 23.182C43.679 22.4742 41.8486 22.11 40 22.11V22.09Z" fill="#222222"/>
<path fill-rule="evenodd" clip-rule="evenodd" d="M68.58 62.46C68.5893 64.4825 67.8969 66.4457 66.6208 68.0148C65.3446 69.584 63.5638 70.6619 61.5818 71.065C59.5998 71.468 57.5394 71.1712 55.7518 70.2251C53.9641 69.279 52.56 67.7422 51.7786 65.8767C50.9973 64.0111 50.8871 61.9324 51.4669 59.9947C52.0468 58.057 53.2807 56.3805 54.9583 55.2508C56.6359 54.121 58.6534 53.6081 60.6669 53.7995C62.6804 53.9908 64.5652 54.8745 66 56.3C66.815 57.1059 67.4626 58.0651 67.9054 59.1223C68.3482 60.1795 68.5775 61.3138 68.58 62.46Z" fill="#19B5BC"/>
<path d="M59.87 72.06C59.242 72.0561 58.6159 71.9925 58 71.87C56.6077 71.5949 55.2938 71.0142 54.1532 70.1698C53.0125 69.3253 52.0735 68.2383 51.4039 66.987C50.7342 65.7357 50.3506 64.3514 50.2808 62.9339C50.2109 61.5164 50.4566 60.1011 51 58.79C51.8534 56.7442 53.3885 55.0567 55.3448 54.0141C57.301 52.9715 59.5578 52.638 61.732 53.0702C63.9061 53.5025 65.8637 54.6738 67.2724 56.3854C68.6811 58.097 69.454 60.2433 69.46 62.46C69.4521 65.0019 68.4395 67.4376 66.643 69.236C64.8465 71.0343 62.4119 72.0495 59.87 72.06ZM59.87 54.61C58.0487 54.6054 56.2822 55.2327 54.8716 56.3848C53.461 57.537 52.4937 59.1427 52.1346 60.9283C51.7755 62.7139 52.0468 64.5687 52.9023 66.1766C53.7578 67.7845 55.1445 69.0459 56.826 69.7458C58.5075 70.4456 60.3796 70.5406 62.1233 70.0145C63.867 69.4885 65.3743 68.3739 66.3881 66.8608C67.4019 65.3478 67.8596 63.5299 67.6831 61.7172C67.5065 59.9044 66.7067 58.209 65.42 56.92C64.6925 56.1858 63.8264 55.6035 62.8719 55.2069C61.9174 54.8104 60.8936 54.6075 59.86 54.61H59.87Z" fill="#222222"/>
<path d="M59.86 66.83C59.6378 66.8277 59.4248 66.7404 59.2649 66.586C59.105 66.4317 59.0102 66.222 59 66V59.62C58.9869 59.4972 58.9997 59.3731 59.0377 59.2556C59.0757 59.1381 59.1379 59.0299 59.2205 58.9381C59.303 58.8463 59.4039 58.7728 59.5167 58.7226C59.6294 58.6723 59.7515 58.6463 59.875 58.6463C59.9985 58.6463 60.1205 58.6723 60.2333 58.7226C60.3461 58.7728 60.447 58.8463 60.5295 58.9381C60.6121 59.0299 60.6743 59.1381 60.7123 59.2556C60.7503 59.3731 60.7631 59.4972 60.75 59.62V66C60.7396 66.2272 60.6406 66.4413 60.4743 66.5965C60.3079 66.7516 60.0874 66.8354 59.86 66.83Z" fill="#222222"/>
<path d="M63 63.66H56.69C56.4741 63.6369 56.2743 63.5348 56.1292 63.3732C55.984 63.2117 55.9037 63.0022 55.9037 62.785C55.9037 62.5679 55.984 62.3584 56.1292 62.1968C56.2743 62.0353 56.4741 61.9331 56.69 61.91H63C63.1228 61.8969 63.2469 61.9097 63.3644 61.9477C63.4819 61.9857 63.5901 62.048 63.6819 62.1305C63.7737 62.213 63.8472 62.3139 63.8974 62.4267C63.9477 62.5395 63.9737 62.6616 63.9737 62.785C63.9737 62.9085 63.9477 63.0306 63.8974 63.1433C63.8472 63.2561 63.7737 63.357 63.6819 63.4396C63.5901 63.5221 63.4819 63.5844 63.3644 63.6224C63.2469 63.6603 63.1228 63.6732 63 63.66Z" fill="#222222"/>
<path d="M40 7.92005C45.6763 7.9221 51.2499 9.434 56.1492 12.3007C61.0485 15.1673 65.097 19.2856 67.8797 24.2331C70.6623 29.1805 72.0788 34.7791 71.984 40.4546C71.8892 46.1302 70.2864 51.6783 67.34 56.5301C68.8482 58.4529 69.5637 60.88 69.3397 63.3135C69.1157 65.747 67.9691 68.0027 66.1352 69.6179C64.3013 71.2331 61.9189 72.0856 59.4766 72.0004C57.0343 71.9153 54.717 70.8991 53 69.1601L52.73 69.2801C47.5705 71.5167 41.9127 72.3541 36.3264 71.7081C30.7402 71.062 25.4229 68.9553 20.91 65.6001C20.45 65.2601 19.98 64.9201 19.52 64.6001L19 64.2101V64.1401C14.0532 59.8686 10.533 54.1847 8.91273 47.853C7.29245 41.5212 7.64984 34.8452 9.93683 28.7226C12.2238 22.6 16.3307 17.3245 21.7053 13.6055C27.0798 9.88653 33.4643 7.90244 40 7.92005ZM40 6.17005C33.215 6.16509 26.5862 8.20652 20.9795 12.0277C15.3728 15.8488 11.0488 21.2721 8.57232 27.589C6.09587 33.906 5.58209 40.8229 7.09809 47.4364C8.61408 54.0499 12.0894 60.0525 17.07 64.6601L17.02 64.8101L17.95 65.5401L18.43 65.9201C18.9 66.2901 19.43 66.6501 19.89 67.0201C24.5289 70.4695 29.9775 72.6668 35.7116 73.4007C41.4456 74.1345 47.272 73.3801 52.63 71.2101C54.303 72.5999 56.341 73.4784 58.5002 73.7405C60.6593 74.0025 62.8483 73.6369 64.8051 72.6875C66.762 71.7381 68.4039 70.245 69.5344 68.3869C70.665 66.5288 71.2363 64.3843 71.18 62.2101C71.1148 60.1835 70.507 58.2116 69.42 56.5001C72.3173 51.3632 73.8178 45.5569 73.7723 39.6595C73.7268 33.7621 72.1367 27.9796 69.1605 22.8881C66.1843 17.7966 61.9259 13.5739 56.8096 10.6406C51.6932 7.70736 45.8976 6.16598 40 6.17005Z" fill="white"/>
</svg>
