<svg width="80" height="80" viewBox="0 0 80 80" fill="none" xmlns="http://www.w3.org/2000/svg">
<path fill-rule="evenodd" clip-rule="evenodd" d="M57 72H23C19.53 72 17.62 70.17 17.62 67.91V12.11C17.62 8.01001 20.81 8.01001 24.62 8.01001H55.32C60.44 8.01001 62.32 8.01001 62.32 12.11V67.92C62.35 70.18 60.43 72 57 72Z" fill="#4583EA"/>
<path d="M57 72.89H23C18.67 72.89 16.74 70.39 16.74 67.89V12.11C16.74 7.10998 20.92 7.10999 24.61 7.10999H55.36C60.43 7.10999 63.23 7.10998 63.23 12.11V67.92C63.23 70.83 60.69 72.86 57.04 72.92L57 72.89ZM24.61 8.88999C20.17 8.88999 18.49 9.15998 18.49 12.11V67.92C18.49 69.92 20.26 71.14 23 71.14H57C59.73 71.14 61.49 69.87 61.49 67.92V12.11C61.49 8.99998 60.8 8.88999 55.37 8.88999H24.61Z" fill="#222222"/>
<path fill-rule="evenodd" clip-rule="evenodd" d="M55.49 28.8L24.59 28.59L24.84 16.18L55.24 15.98L55.49 28.8Z" fill="white"/>
<path d="M55.49 29.68L24.6 29.47C24.3728 29.46 24.1581 29.3634 24 29.2C23.9183 29.1171 23.854 29.0186 23.8111 28.9104C23.7682 28.8022 23.7474 28.6864 23.75 28.57L24 16.16C24.0052 15.9328 24.0992 15.7166 24.2618 15.5577C24.4243 15.3989 24.6427 15.31 24.87 15.31L55.27 15.11C55.3841 15.106 55.4979 15.125 55.6045 15.1659C55.7111 15.2068 55.8084 15.2688 55.8905 15.3481C55.9726 15.4275 56.0379 15.5225 56.0825 15.6277C56.1271 15.7328 56.15 15.8458 56.15 15.96L56.4 28.78C56.4028 28.8979 56.3821 29.0153 56.3392 29.1251C56.2963 29.235 56.232 29.3352 56.15 29.42C56.063 29.5053 55.9597 29.5723 55.8464 29.617C55.733 29.6616 55.6118 29.6831 55.49 29.68ZM25.49 27.68L54.59 27.88L54.38 16.82L25.69 17.01L25.49 27.68Z" fill="#222222"/>
<path fill-rule="evenodd" clip-rule="evenodd" d="M31.0701 42H24.5601L24.6501 35.53L31.1201 35.44L31.0701 42Z" fill="white"/>
<path d="M24.5501 42.9C24.3178 42.8957 24.096 42.8026 23.9301 42.64C23.7704 42.4689 23.6812 42.244 23.6801 42.01L23.7801 35.54C23.7827 35.3127 23.8741 35.0955 24.0348 34.9348C24.1955 34.7741 24.4128 34.6826 24.6401 34.68L31.1001 34.58C31.3297 34.5828 31.549 34.6762 31.7101 34.84C31.794 34.9218 31.8604 35.0198 31.9051 35.1282C31.9498 35.2365 31.9719 35.3528 31.9701 35.47L32.0001 42C31.9975 42.2299 31.905 42.4497 31.7424 42.6123C31.5798 42.7749 31.36 42.8674 31.1301 42.87H24.6101L24.5501 42.9ZM25.5201 36.43L25.4401 41.16H30.2101V36.4L25.5201 36.43Z" fill="#222222"/>
<path fill-rule="evenodd" clip-rule="evenodd" d="M43.22 42L36.84 41.94V35.59H43.17L43.22 42Z" fill="#FFC518"/>
<path d="M43.22 42.83H36.83C36.5974 42.8146 36.3802 42.7085 36.225 42.5346C36.0698 42.3607 35.989 42.1328 36 41.9V35.59C36 35.3593 36.0917 35.138 36.2548 34.9748C36.418 34.8117 36.6393 34.72 36.87 34.72H43.19C43.3046 34.7174 43.4186 34.7376 43.5253 34.7797C43.6319 34.8217 43.7291 34.8846 43.8111 34.9647C43.8931 35.0449 43.9582 35.1406 44.0027 35.2462C44.0472 35.3519 44.07 35.4654 44.07 35.58L44.1 42C44.1014 42.116 44.0795 42.231 44.0358 42.3384C43.992 42.4457 43.9272 42.5433 43.8453 42.6253C43.7633 42.7072 43.6657 42.772 43.5584 42.8158C43.451 42.8595 43.336 42.8814 43.22 42.88V42.83ZM37.71 41H42.34V36.36H37.76L37.71 41Z" fill="#222222"/>
<path fill-rule="evenodd" clip-rule="evenodd" d="M55.37 41.94H48.97V35.58H55.27L55.37 41.94Z" fill="#F06F5E"/>
<path d="M55.37 42.82H48.98C48.7493 42.82 48.528 42.7283 48.3648 42.5652C48.2017 42.402 48.11 42.1807 48.11 41.95V35.56C48.1089 35.4444 48.1314 35.3298 48.1761 35.2232C48.2208 35.1166 48.2868 35.0202 48.37 34.94C48.4518 34.8595 48.5486 34.796 48.6551 34.7531C48.7615 34.7102 48.8753 34.6887 48.99 34.69H55.3C55.4138 34.6887 55.5267 34.7099 55.6322 34.7526C55.7377 34.7952 55.8337 34.8583 55.9146 34.9383C55.9955 35.0183 56.0598 35.1136 56.1036 35.2186C56.1475 35.3236 56.17 35.4362 56.17 35.55L56.24 41.89C56.2389 42.124 56.1496 42.3489 55.99 42.52C55.8306 42.6974 55.608 42.8051 55.37 42.82ZM49.85 41.05H54.48V36.46H49.91L49.85 41.05Z" fill="#222222"/>
<path fill-rule="evenodd" clip-rule="evenodd" d="M31.1199 53.54L24.7099 53.39L24.5699 47L31.0399 47.06L31.1199 53.54Z" fill="white"/>
<path d="M31.12 54.41L24.7 54.27C24.476 54.26 24.2641 54.1659 24.1065 54.0065C23.9489 53.8471 23.8573 53.634 23.85 53.41L23.7 47C23.6986 46.7626 23.788 46.5336 23.95 46.36C24.1189 46.1959 24.3444 46.1028 24.58 46.1L31.05 46.17C31.279 46.17 31.4988 46.2602 31.6616 46.4212C31.8245 46.5822 31.9173 46.801 31.92 47.03L32 53.53C32.0013 53.6459 31.9795 53.7609 31.9357 53.8683C31.892 53.9757 31.8272 54.0732 31.7452 54.1552C31.6632 54.2372 31.5657 54.302 31.4583 54.3457C31.3509 54.3895 31.2359 54.4113 31.12 54.41ZM25.56 52.53L30.24 52.64L30.18 47.92L25.47 47.87L25.56 52.53Z" fill="#222222"/>
<path fill-rule="evenodd" clip-rule="evenodd" d="M43.28 53.54H36.71V47H43.26L43.28 53.54Z" fill="white"/>
<path d="M43.28 54.41H36.71C36.5949 54.4113 36.4807 54.3898 36.3739 54.3467C36.2672 54.3035 36.1701 54.2397 36.0883 54.1587C36.0064 54.0778 35.9415 53.9815 35.8971 53.8753C35.8528 53.7691 35.8299 53.6551 35.83 53.54V47C35.83 46.7693 35.9216 46.548 36.0848 46.3848C36.2479 46.2217 36.4692 46.13 36.7 46.13H43.26C43.4908 46.1352 43.7106 46.2299 43.8729 46.3941C44.0353 46.5583 44.1274 46.7791 44.13 47.01V53.56C44.13 53.7907 44.0383 54.012 43.8751 54.1752C43.712 54.3383 43.4907 54.43 43.26 54.43L43.28 54.41ZM37.58 52.66H42.4V47.86H37.6L37.58 52.66Z" fill="#222222"/>
<path fill-rule="evenodd" clip-rule="evenodd" d="M55.5099 65L49.0899 64.9L48.9399 47.02L55.2399 47.07L55.5099 65Z" fill="#F19C22"/>
<path d="M55.51 65.9L49.08 65.81C48.8518 65.8048 48.6346 65.7112 48.4741 65.5489C48.3137 65.3865 48.2225 65.1682 48.22 64.94L48.08 47.06C48.0787 46.9441 48.1005 46.829 48.1443 46.7217C48.188 46.6143 48.2528 46.5167 48.3348 46.4347C48.4168 46.3528 48.5143 46.288 48.6217 46.2442C48.729 46.2005 48.8441 46.1786 48.96 46.18H55.25C55.479 46.18 55.6988 46.2703 55.8617 46.4313C56.0246 46.5923 56.1174 46.811 56.12 47.04L56.39 65C56.3902 65.1169 56.3673 65.2328 56.3227 65.3409C56.2781 65.449 56.2126 65.5472 56.13 65.63C56.0499 65.7141 55.9538 65.7813 55.8473 65.8277C55.7408 65.8741 55.6261 65.8986 55.51 65.9ZM50 64.07L54.68 64.14L54.37 48H49.83L50 64.07Z" fill="#222222"/>
<path fill-rule="evenodd" clip-rule="evenodd" d="M31.12 65.05H24.59L24.71 58.66H31L31.12 65.05Z" fill="white"/>
<path d="M31.12 65.93H24.59C24.4744 65.9311 24.3598 65.9086 24.2532 65.8639C24.1466 65.8192 24.0502 65.7532 23.97 65.67C23.8086 65.5 23.7191 65.2743 23.72 65.04L23.84 58.65C23.8452 58.4227 23.9392 58.2066 24.1018 58.0477C24.2644 57.8888 24.4827 57.7999 24.71 57.8H31C31.2273 57.7999 31.4456 57.8888 31.6082 58.0477C31.7708 58.2066 31.8648 58.4227 31.87 58.65L32 65C32.0037 65.1165 31.9835 65.2326 31.9405 65.341C31.8975 65.4494 31.8326 65.5477 31.75 65.63C31.671 65.7203 31.5743 65.7935 31.466 65.8451C31.3576 65.8967 31.2399 65.9256 31.12 65.93ZM25.48 64.16H30.22L30.13 59.5H25.56L25.48 64.16Z" fill="#222222"/>
<path fill-rule="evenodd" clip-rule="evenodd" d="M43.15 64.93L36.71 65.06V58.5H43.27L43.15 64.93Z" fill="white"/>
<path d="M36.71 65.94C36.4803 65.9373 36.261 65.8438 36.1 65.68C36.0168 65.5998 35.9508 65.5034 35.9061 65.3968C35.8614 65.2902 35.8389 65.1756 35.84 65.06V58.5C35.8425 58.2691 35.9347 58.0483 36.097 57.8841C36.2594 57.7199 36.4792 57.6252 36.71 57.62H43.28C43.3962 57.6208 43.5111 57.6451 43.6177 57.6915C43.7242 57.7379 43.8203 57.8054 43.9 57.89C43.9827 57.9722 44.0475 58.0706 44.0905 58.179C44.1335 58.2874 44.1538 58.4035 44.15 58.52L44 65C43.9949 65.2265 43.9027 65.4423 43.7425 65.6025C43.5823 65.7627 43.3665 65.8549 43.14 65.86L36.7 65.99L36.71 65.94ZM37.6 59.37V64.17L42.31 64.07L42.4 59.37H37.6Z" fill="#222222"/>
<path d="M55.35 7.13999C60.46 7.13999 63.28 7.13999 63.28 12.14V67.92C63.28 70.85 60.71 72.92 57.03 72.92H23C19.31 72.92 16.75 70.92 16.75 67.92V12.11C16.75 7.10998 20.94 7.10999 24.65 7.10999H55.35V7.13999ZM55.35 5.35999H24.63C21.03 5.35999 14.97 5.35999 14.97 12.08V67.92C14.97 71.81 18.34 74.64 22.97 74.64H57C61.62 74.64 65 71.81 65 67.92V12.11C65 5.38999 60.29 5.38999 55.32 5.38999L55.35 5.35999Z" fill="white"/>
</svg>
