<svg width="80" height="80" viewBox="0 0 80 80" fill="none" xmlns="http://www.w3.org/2000/svg">
<path d="M67.84 7.92001C67.9222 7.90008 68.0079 7.90008 68.09 7.92001C68.1727 7.94995 68.2479 7.99772 68.3101 8.05994C68.3723 8.12215 68.4201 8.19728 68.45 8.28001C68.465 8.36267 68.465 8.44735 68.45 8.53001V71.43C68.465 71.5127 68.465 71.5974 68.45 71.68C68.4188 71.7591 68.371 71.8307 68.31 71.89C68.2456 71.9493 68.1711 71.9967 68.09 72.03C68.0079 72.0499 67.9222 72.0499 67.84 72.03H17.11C16.9378 72.0291 16.7727 71.9609 16.65 71.84C16.587 71.7811 16.5367 71.7099 16.5023 71.6308C16.4679 71.5517 16.4501 71.4663 16.45 71.38V64.65C15.0903 64.4866 13.8376 63.8306 12.9288 62.8061C12.02 61.7816 11.5182 60.4595 11.5182 59.09C11.5182 57.7205 12.02 56.3985 12.9288 55.3739C13.8376 54.3494 15.0903 53.6934 16.45 53.53V44.7C15.0842 44.5465 13.8228 43.8951 12.9069 42.8704C11.9909 41.8457 11.4846 40.5194 11.4846 39.145C11.4846 37.7706 11.9909 36.4444 12.9069 35.4196C13.8228 34.3949 15.0842 33.7436 16.45 33.59V24.76C15.0903 24.5966 13.8376 23.9406 12.9288 22.9161C12.02 21.8916 11.5182 20.5695 11.5182 19.2C11.5182 17.8305 12.02 16.5085 12.9288 15.4839C13.8376 14.4594 15.0903 13.8034 16.45 13.64V8.58001C16.4487 8.49297 16.4648 8.40654 16.4975 8.32585C16.5302 8.24517 16.5788 8.17187 16.6403 8.11032C16.7019 8.04876 16.7752 8.00019 16.8559 7.9675C16.9365 7.93481 17.023 7.91866 17.11 7.92001H67.84ZM16.44 23.43V15C15.4299 15.1558 14.5088 15.6679 13.8435 16.4437C13.1781 17.2196 12.8123 18.2079 12.8123 19.23C12.8123 20.2521 13.1781 21.2404 13.8435 22.0163C14.5088 22.7921 15.4299 23.3042 16.44 23.46V23.43ZM16.44 43.43V34.92C15.4365 35.0825 14.5236 35.5968 13.8647 36.3709C13.2058 37.1451 12.844 38.1284 12.844 39.145C12.844 40.1616 13.2058 41.145 13.8647 41.9191C14.5236 42.6932 15.4365 43.2076 16.44 43.37V43.43ZM16.44 63.36V54.86C15.4299 55.0158 14.5088 55.5279 13.8435 56.3037C13.1781 57.0796 12.8123 58.0679 12.8123 59.09C12.8123 60.1121 13.1781 61.1004 13.8435 61.8763C14.5088 62.6521 15.4299 63.1642 16.44 63.32V63.36ZM67.84 6.17001H17.11C16.4717 6.17265 15.8602 6.4274 15.4088 6.87879C14.9574 7.33019 14.7027 7.94165 14.7 8.58001V12.26C13.2552 12.7576 12.0017 13.6937 11.1143 14.9378C10.2269 16.1819 9.75 17.6719 9.75 19.2C9.75 20.7281 10.2269 22.2182 11.1143 23.4622C12.0017 24.7063 13.2552 25.6424 14.7 26.14V32.2C13.2563 32.7002 12.0044 33.6378 11.1184 34.8825C10.2323 36.1272 9.75615 37.6171 9.75615 39.145C9.75615 40.6729 10.2323 42.1628 11.1184 43.4075C12.0044 44.6522 13.2563 45.5898 14.7 46.09V52.15C13.2657 52.654 12.0232 53.5909 11.1442 54.8314C10.2652 56.0719 9.79312 57.5547 9.79312 59.075C9.79312 60.5953 10.2652 62.0782 11.1442 63.3186C12.0232 64.5591 13.2657 65.496 14.7 66V71.4C14.7027 72.0375 14.9577 72.6479 15.4094 73.0977C15.8611 73.5475 16.4726 73.8 17.11 73.8H67.84C68.4775 73.8 69.089 73.5475 69.5406 73.0977C69.9923 72.6479 70.2474 72.0375 70.25 71.4V8.58001C70.2474 7.94165 69.9926 7.33019 69.5412 6.87879C69.0899 6.4274 68.4784 6.17265 67.84 6.17001ZM14.69 20C14.5303 19.4923 14.5303 18.9478 14.69 18.44V20ZM14.69 39.94C14.6105 39.6911 14.57 39.4313 14.57 39.17C14.5699 38.9054 14.6104 38.6424 14.69 38.39V39.94ZM14.69 59.94C14.5303 59.4323 14.5303 58.8878 14.69 58.38V59.94Z" fill="white"/>
<path d="M14.8201 21.45C15.4501 21.45 15.9601 20.38 15.9601 19.07C15.9601 17.76 15.4501 16.69 14.8201 16.69C14.1901 16.69 13.6801 17.76 13.6801 19.07C13.6801 20.38 14.1901 21.45 14.8201 21.45Z" fill="white"/>
<path d="M14.8201 41.29C15.4501 41.29 15.9601 40.22 15.9601 38.91C15.9601 37.6 15.4501 36.53 14.8201 36.53C14.1901 36.53 13.6801 37.6 13.6801 38.91C13.6801 40.22 14.1901 41.29 14.8201 41.29Z" fill="white"/>
<path d="M14.63 61.4C15.26 61.4 15.77 60.33 15.77 59.02C15.77 57.71 15.26 56.64 14.63 56.64C14 56.64 13.49 57.71 13.49 59C13.49 60.29 14 61.4 14.63 61.4Z" fill="white"/>
<path d="M67.84 8.51001H28.12V71.36H67.84V8.51001Z" fill="white"/>
<path d="M28.12 8.39001H17.12V70.84H28.12V8.39001Z" fill="#7CA8F0"/>
<path d="M67.84 72.23H17.1C16.8692 72.23 16.648 72.1383 16.4848 71.9752C16.3216 71.812 16.23 71.5907 16.23 71.36V8.51C16.23 8.27834 16.3213 8.05601 16.4842 7.89126C16.6471 7.72651 16.8683 7.63264 17.1 7.63H67.84C68.0716 7.63264 68.2929 7.72651 68.4558 7.89126C68.6187 8.05601 68.71 8.27834 68.71 8.51V71.36C68.71 71.5907 68.6183 71.812 68.4552 71.9752C68.292 72.1383 68.0707 72.23 67.84 72.23ZM18 70.48H67V9.38H18V70.48Z" fill="#222222"/>
<path d="M61.26 35.42C60.2557 35.4428 59.2577 35.2554 58.33 34.87C56.8519 34.2702 55.1982 34.2702 53.72 34.87C52.7917 35.2532 51.7942 35.4404 50.79 35.42C49.7889 35.4429 48.7942 35.2555 47.87 34.87C46.3919 34.2702 44.7382 34.2702 43.26 34.87C41.3829 35.6059 39.2971 35.6059 37.42 34.87C36.6923 34.5526 35.9037 34.399 35.11 34.42C34.9873 34.4331 34.8631 34.4203 34.7456 34.3823C34.6282 34.3443 34.52 34.2821 34.4282 34.1995C34.3363 34.117 34.2629 34.0161 34.2126 33.9033C34.1623 33.7905 34.1364 33.6685 34.1364 33.545C34.1364 33.4215 34.1623 33.2994 34.2126 33.1867C34.2629 33.0739 34.3363 32.973 34.4282 32.8905C34.52 32.8079 34.6282 32.7457 34.7456 32.7077C34.8631 32.6697 34.9873 32.6569 35.11 32.67C36.1151 32.6495 37.1133 32.8403 38.04 33.23C39.5172 33.8168 41.1628 33.8168 42.64 33.23C44.5221 32.4838 46.618 32.4838 48.5 33.23C49.9739 33.8162 51.6162 33.8162 53.09 33.23C54.0114 32.8458 55.0019 32.6552 56 32.67C57.0051 32.6495 58.0033 32.8403 58.93 33.23C59.6552 33.5434 60.4404 33.6937 61.23 33.67C61.446 33.6931 61.6457 33.7953 61.7909 33.9568C61.936 34.1183 62.0164 34.3278 62.0164 34.545C62.0164 34.7622 61.936 34.9717 61.7909 35.1332C61.6457 35.2947 61.446 35.3969 61.23 35.42H61.26Z" fill="#222222"/>
<path d="M61.26 42.86C60.2557 42.8828 59.2577 42.6954 58.33 42.31C56.8519 41.7102 55.1982 41.7102 53.72 42.31C52.7917 42.6932 51.7942 42.8805 50.79 42.86C49.7889 42.8829 48.7942 42.6955 47.87 42.31C46.3919 41.7102 44.7382 41.7102 43.26 42.31C41.3829 43.0459 39.2971 43.0459 37.42 42.31C36.6923 41.9926 35.9037 41.839 35.11 41.86C34.9873 41.8731 34.8631 41.8603 34.7456 41.8223C34.6282 41.7843 34.52 41.7221 34.4282 41.6395C34.3363 41.557 34.2629 41.4561 34.2126 41.3433C34.1623 41.2305 34.1364 41.1085 34.1364 40.985C34.1364 40.8615 34.1623 40.7394 34.2126 40.6267C34.2629 40.5139 34.3363 40.413 34.4282 40.3305C34.52 40.2479 34.6282 40.1857 34.7456 40.1477C34.8631 40.1097 34.9873 40.0969 35.11 40.11C36.1151 40.0895 37.1133 40.2803 38.04 40.67C39.5172 41.2568 41.1628 41.2568 42.64 40.67C44.5221 39.9238 46.618 39.9238 48.5 40.67C49.9739 41.2562 51.6162 41.2562 53.09 40.67C54.0114 40.2858 55.0019 40.0952 56 40.11C57.0051 40.0895 58.0033 40.2803 58.93 40.67C59.6552 40.9834 60.4404 41.1337 61.23 41.11C61.446 41.1331 61.6457 41.2353 61.7909 41.3968C61.936 41.5583 62.0164 41.7678 62.0164 41.985C62.0164 42.2022 61.936 42.4117 61.7909 42.5732C61.6457 42.7347 61.446 42.8369 61.23 42.86H61.26Z" fill="#222222"/>
<path d="M59.13 50.19C58.2658 50.2085 57.4084 50.0343 56.62 49.68C56.032 49.4291 55.3993 49.2998 54.76 49.2998C54.1207 49.2998 53.488 49.4291 52.9 49.68C52.1116 50.0343 51.2541 50.2085 50.39 50.19C49.5289 50.2101 48.6744 50.0357 47.89 49.68C47.302 49.4291 46.6693 49.2998 46.03 49.2998C45.3907 49.2998 44.758 49.4291 44.17 49.68C43.3788 50.0139 42.5287 50.1859 41.67 50.1859C40.8112 50.1859 39.9612 50.0139 39.17 49.68C38.5902 49.4145 37.9575 49.2846 37.32 49.3C37.1972 49.3131 37.0731 49.3003 36.9556 49.2623C36.8381 49.2243 36.7299 49.1621 36.6381 49.0795C36.5463 48.997 36.4728 48.8961 36.4226 48.7833C36.3723 48.6705 36.3463 48.5485 36.3463 48.425C36.3463 48.3015 36.3723 48.1795 36.4226 48.0667C36.4728 47.9539 36.5463 47.853 36.6381 47.7705C36.7299 47.6879 36.8381 47.6257 36.9556 47.5877C37.0731 47.5497 37.1972 47.5369 37.32 47.55C38.1841 47.5315 39.0416 47.7057 39.83 48.06C40.4145 48.3109 41.0439 48.4403 41.68 48.4403C42.3161 48.4403 42.9455 48.3109 43.53 48.06C44.3062 47.7118 45.1493 47.5377 46 47.55C46.8644 47.5291 47.7223 47.7034 48.51 48.06C49.0898 48.3255 49.7225 48.4554 50.36 48.44C51.0007 48.4552 51.6366 48.3253 52.22 48.06C53.0112 47.7261 53.8612 47.5541 54.72 47.5541C55.5787 47.5541 56.4288 47.7261 57.22 48.06C57.8034 48.3253 58.4393 48.4552 59.08 48.44C59.2959 48.4631 59.4957 48.5653 59.6409 48.7268C59.786 48.8883 59.8663 49.0978 59.8663 49.315C59.8663 49.5322 59.786 49.7417 59.6409 49.9032C59.4957 50.0647 59.2959 50.1669 59.08 50.19H59.13Z" fill="#222222"/>
<path d="M60.66 57.65C59.6894 57.6713 58.7261 57.4766 57.84 57.08C56.4432 56.5066 54.8767 56.5066 53.48 57.08C52.5874 57.4562 51.6286 57.6501 50.66 57.6501C49.6914 57.6501 48.7325 57.4562 47.84 57.08C46.4432 56.5066 44.8767 56.5066 43.48 57.08C42.5938 57.4766 41.6306 57.6713 40.66 57.65C39.6924 57.6729 38.7321 57.4781 37.85 57.08C37.1607 56.7767 36.4128 56.6299 35.66 56.65C35.444 56.6269 35.2443 56.5247 35.0991 56.3632C34.954 56.2017 34.8737 55.9922 34.8737 55.775C34.8737 55.5578 34.954 55.3483 35.0991 55.1868C35.2443 55.0253 35.444 54.9231 35.66 54.9C36.6363 54.8755 37.606 55.0667 38.5 55.46C39.1783 55.7655 39.9162 55.9159 40.66 55.9C41.4103 55.9165 42.1548 55.7662 42.84 55.46C44.6458 54.7133 46.6741 54.7133 48.48 55.46C49.1701 55.7504 49.9113 55.9 50.66 55.9C51.4087 55.9 52.1499 55.7504 52.84 55.46C54.6458 54.7133 56.6741 54.7133 58.48 55.46C59.1651 55.7662 59.9097 55.9165 60.66 55.9C60.7827 55.8869 60.9069 55.8997 61.0244 55.9377C61.1419 55.9757 61.25 56.0379 61.3419 56.1205C61.4337 56.203 61.5071 56.3039 61.5574 56.4167C61.6077 56.5295 61.6337 56.6515 61.6337 56.775C61.6337 56.8985 61.6077 57.0206 61.5574 57.1333C61.5071 57.2461 61.4337 57.347 61.3419 57.4295C61.25 57.5121 61.1419 57.5743 61.0244 57.6123C60.9069 57.6503 60.7827 57.6631 60.66 57.65Z" fill="#222222"/>
<path d="M59.86 65C58.9443 65.0187 58.0359 64.8343 57.2 64.46C56.568 64.1893 55.8876 64.0497 55.2 64.0497C54.5124 64.0497 53.832 64.1893 53.2 64.46C52.3585 64.8164 51.4539 65.0001 50.54 65.0001C49.6261 65.0001 48.7215 64.8164 47.88 64.46C47.248 64.1893 46.5676 64.0497 45.88 64.0497C45.1924 64.0497 44.512 64.1893 43.88 64.46C43.0481 64.8357 42.1426 65.0202 41.23 65C40.3144 65.0177 39.4062 64.8333 38.57 64.46C37.9434 64.1723 37.2592 64.032 36.57 64.05C36.4472 64.0631 36.3231 64.0503 36.2056 64.0123C36.0881 63.9743 35.9799 63.9121 35.8881 63.8295C35.7963 63.747 35.7228 63.6461 35.6726 63.5333C35.6223 63.4205 35.5963 63.2985 35.5963 63.175C35.5963 63.0515 35.6223 62.9295 35.6726 62.8167C35.7228 62.7039 35.7963 62.603 35.8881 62.5205C35.9799 62.4379 36.0881 62.3757 36.2056 62.3377C36.3231 62.2997 36.4472 62.2869 36.57 62.3C37.4856 62.2823 38.3938 62.4667 39.23 62.84C39.862 63.1107 40.5424 63.2503 41.23 63.2503C41.9175 63.2503 42.598 63.1107 43.23 62.84C44.0619 62.4643 44.9674 62.2798 45.88 62.3C46.7956 62.2823 47.7038 62.4667 48.54 62.84C49.172 63.1107 49.8524 63.2503 50.54 63.2503C51.2276 63.2503 51.908 63.1107 52.54 62.84C53.3815 62.4836 54.2861 62.2999 55.2 62.2999C56.1139 62.2999 57.0185 62.4836 57.86 62.84C58.4861 63.1291 59.1706 63.2694 59.86 63.25C60.0759 63.2731 60.2757 63.3753 60.4208 63.5368C60.566 63.6983 60.6463 63.9078 60.6463 64.125C60.6463 64.3422 60.566 64.5517 60.4208 64.7132C60.2757 64.8747 60.0759 64.9769 59.86 65Z" fill="#222222"/>
<path d="M28.12 71.71C28.0058 71.71 27.8926 71.6875 27.7871 71.6438C27.6815 71.6 27.5856 71.536 27.5048 71.4552C27.424 71.3744 27.3599 71.2785 27.3162 71.1729C27.2725 71.0674 27.25 70.9542 27.25 70.84V9.34999C27.2731 9.13405 27.3753 8.93428 27.5368 8.78912C27.6983 8.64396 27.9078 8.56366 28.125 8.56366C28.3422 8.56366 28.5517 8.64396 28.7132 8.78912C28.8747 8.93428 28.9769 9.13405 29 9.34999V70.84C28.9974 71.0716 28.9035 71.2929 28.7387 71.4558C28.574 71.6187 28.3517 71.71 28.12 71.71Z" fill="#222222"/>
<path d="M54.77 18.49C53.38 18.49 52.44 19.59 51.77 20.49C51.1 19.6 50.22 18.43 48.77 18.4C46.86 18.4 45.77 19.88 45.69 21.79C45.61 25.25 49.69 27.56 51.55 28.37C53.06 27.59 57.55 25.25 57.65 21.99C57.74 20.11 56.69 18.53 54.77 18.49Z" fill="#F06F5E"/>
<path d="M51.6 29.25C51.479 29.2486 51.3597 29.2213 51.25 29.17C49.73 28.51 44.77 26.02 44.87 21.77C44.97 19.21 46.6 17.45 48.87 17.53C49.4441 17.5649 50.004 17.7233 50.5113 17.9942C51.0187 18.2651 51.4617 18.6423 51.81 19.1C52.1774 18.6549 52.6345 18.2922 53.1513 18.0355C53.6682 17.7788 54.2334 17.6338 54.81 17.61C55.3585 17.6153 55.8989 17.7428 56.3919 17.9833C56.8849 18.2237 57.3182 18.571 57.66 19C58.297 19.8673 58.6213 20.9248 58.58 22C58.48 25.79 53.58 28.31 52 29.14C51.8769 29.207 51.74 29.2446 51.6 29.25ZM48.73 19.25C47.25 19.25 46.67 20.56 46.61 21.81C46.55 24.7 50.18 26.71 51.61 27.38C55 25.56 56.78 23.73 56.83 22C56.8622 21.3294 56.6685 20.6675 56.28 20.12C56.101 19.8884 55.8703 19.7018 55.6065 19.575C55.3426 19.4483 55.0527 19.3849 54.76 19.39C53.82 19.39 53.11 20.19 52.47 21.04C52.3893 21.1495 52.2838 21.2384 52.1621 21.2992C52.0405 21.3601 51.9061 21.3912 51.77 21.39C51.6351 21.3908 51.5018 21.3605 51.3804 21.3016C51.259 21.2426 51.1528 21.1565 51.07 21.05C50.46 20.24 49.78 19.33 48.8 19.3L48.73 19.25Z" fill="#222222"/>
<path d="M46.85 15.78C46.2283 15.8553 45.6329 16.0754 45.1118 16.4228C44.5908 16.7702 44.1586 17.2351 43.85 17.78C43.18 16.89 42.29 15.72 40.85 15.69C38.94 15.69 37.85 17.17 37.78 19.08C37.7 22.54 41.78 24.84 43.63 25.66C45.2 24.92 49.7 22.58 49.77 19.35C49.82 17.4 48.76 15.82 46.85 15.78Z" fill="#F6AAC9"/>
<path d="M43.63 26.54C43.509 26.5385 43.3897 26.5113 43.28 26.46C41.76 25.79 36.81 23.26 36.9 19.06C37 16.5 38.62 14.75 40.9 14.82C41.4836 14.8452 42.0547 14.9979 42.573 15.2674C43.0912 15.5369 43.5442 15.9167 43.9 16.38C44.2662 15.9343 44.7232 15.5719 45.2405 15.3167C45.7578 15.0615 46.3235 14.9194 46.9 14.9C47.3813 14.9042 47.8571 15.0035 48.2999 15.1923C48.7427 15.3811 49.1437 15.6556 49.48 16C49.8872 16.4527 50.1997 16.9823 50.3989 17.5576C50.5981 18.133 50.6801 18.7424 50.64 19.35C50.57 22.82 46.45 25.28 44 26.43C43.8873 26.4959 43.7604 26.5337 43.63 26.54ZM40.76 16.54C39.28 16.54 38.7 17.85 38.65 19.09C38.59 21.97 42.24 24 43.65 24.67C45.25 23.88 48.87 21.8 48.93 19.31C48.9901 18.5476 48.7456 17.7924 48.25 17.21C48.0709 17.0254 47.8563 16.8788 47.6192 16.7792C47.3821 16.6795 47.1272 16.6288 46.87 16.63C45.99 16.63 45.32 17.3 44.58 18.28C44.5061 18.3963 44.4018 18.4904 44.2785 18.552C44.1552 18.6137 44.0175 18.6406 43.88 18.63C43.7451 18.6308 43.6118 18.6005 43.4904 18.5416C43.369 18.4826 43.2628 18.3965 43.18 18.29C42.45 17.29 41.81 16.56 40.86 16.54H40.76Z" fill="#222222"/>
<path d="M17.11 24.94C15.958 24.9349 14.8335 24.5867 13.88 23.94C12.9282 23.2965 12.1845 22.3895 11.74 21.33C11.3034 20.2681 11.19 19.1008 11.4142 17.9747C11.6383 16.8486 12.19 15.8138 13 15C13.821 14.1834 14.8645 13.6268 16 13.4C16.8474 13.2245 17.7232 13.2403 18.5637 13.446C19.4042 13.6517 20.1883 14.0423 20.8588 14.5892C21.5294 15.1362 22.0695 15.8258 22.4399 16.6078C22.8103 17.3899 23.0017 18.2447 23 19.11C22.9769 19.3259 22.8748 19.5257 22.7132 19.6709C22.5517 19.816 22.3422 19.8963 22.125 19.8963C21.9079 19.8963 21.6984 19.816 21.5368 19.6709C21.3753 19.5257 21.2732 19.3259 21.25 19.11C21.2504 18.3079 21.0131 17.5236 20.5682 16.8562C20.1232 16.1888 19.4906 15.6682 18.75 15.36C18.0087 15.0452 17.1897 14.9616 16.4 15.12C15.612 15.2817 14.8888 15.6711 14.3199 16.2399C13.7511 16.8087 13.3617 17.532 13.2 18.32C13.0501 19.1059 13.13 19.9183 13.43 20.66C13.7409 21.4088 14.2662 22.049 14.94 22.5C15.6061 22.9433 16.3899 23.1767 17.19 23.17C17.406 23.1931 17.6057 23.2953 17.7509 23.4568C17.8961 23.6183 17.9764 23.8278 17.9764 24.045C17.9764 24.2622 17.8961 24.4717 17.7509 24.6332C17.6057 24.7947 17.406 24.8969 17.19 24.92L17.11 24.94Z" fill="#222222"/>
<path d="M17.11 44.86C15.9579 44.8549 14.8334 44.5067 13.88 43.86C12.9281 43.2165 12.1844 42.3095 11.74 41.25C11.3076 40.1906 11.1966 39.0275 11.4206 37.9054C11.6447 36.7834 12.1939 35.7521 13 34.94C13.821 34.1234 14.8644 33.5668 16 33.34C16.8473 33.1646 17.7231 33.1803 18.5637 33.386C19.4042 33.5917 20.1882 33.9823 20.8588 34.5292C21.5293 35.0762 22.0694 35.7658 22.4398 36.5478C22.8102 37.3299 23.0016 38.1847 23 39.05C22.9769 39.2659 22.8747 39.4657 22.7132 39.6109C22.5516 39.756 22.3421 39.8363 22.125 39.8363C21.9078 39.8363 21.6983 39.756 21.5368 39.6109C21.3752 39.4657 21.2731 39.2659 21.25 39.05C21.2503 38.2479 21.013 37.4636 20.5681 36.7962C20.1232 36.1288 19.4905 35.6082 18.75 35.3C18.0087 34.9852 17.1896 34.9016 16.4 35.06C15.612 35.2217 14.8887 35.6111 14.3199 36.1799C13.7511 36.7487 13.3617 37.472 13.2 38.26C13.05 39.0459 13.1299 39.8583 13.43 40.6C13.7408 41.3488 14.2662 41.989 14.94 42.44C15.6061 42.8833 16.3898 43.1167 17.19 43.11C17.4059 43.1331 17.6057 43.2353 17.7508 43.3968C17.896 43.5583 17.9763 43.7678 17.9763 43.985C17.9763 44.2022 17.896 44.4117 17.7508 44.5732C17.6057 44.7347 17.4059 44.8369 17.19 44.86H17.11Z" fill="#222222"/>
<path d="M17.11 64.86C15.9621 64.8693 14.8375 64.5353 13.8807 63.901C12.9239 63.2667 12.1784 62.361 11.74 61.3C11.3045 60.2428 11.1918 59.0804 11.416 57.9592C11.6403 56.838 12.1914 55.8084 13 55C13.817 54.1741 14.8613 53.6101 16 53.38C17.1259 53.1462 18.2959 53.2542 19.36 53.69C20.4201 54.1184 21.3311 54.8486 21.98 55.79C22.6195 56.7432 22.967 57.8622 22.98 59.01C22.98 59.2417 22.8887 59.464 22.7258 59.6287C22.5629 59.7935 22.3417 59.8874 22.11 59.89C21.9962 59.8913 21.8833 59.8701 21.7778 59.8274C21.6723 59.7848 21.5763 59.7217 21.4954 59.6417C21.4145 59.5617 21.3503 59.4664 21.3064 59.3614C21.2626 59.2564 21.24 59.1438 21.24 59.03C21.2236 58.226 20.9734 57.4441 20.52 56.78C20.0681 56.1205 19.4314 55.6091 18.69 55.31C17.9498 55.0024 17.1331 54.9291 16.35 55.1C15.5628 55.2603 14.8411 55.6511 14.2767 56.2227C13.7122 56.7943 13.3305 57.5209 13.18 58.31C13.028 59.0966 13.1114 59.9106 13.42 60.65C13.7257 61.3936 14.2485 62.0279 14.92 62.47C15.5915 62.9097 16.3773 63.1427 17.18 63.14C17.3959 63.1631 17.5957 63.2653 17.7409 63.4268C17.886 63.5883 17.9663 63.7978 17.9663 64.015C17.9663 64.2322 17.886 64.4417 17.7409 64.6032C17.5957 64.7647 17.3959 64.8669 17.18 64.89L17.11 64.86Z" fill="#222222"/>
</svg>
