<svg width="80" height="80" viewBox="0 0 80 80" fill="none" xmlns="http://www.w3.org/2000/svg">
<path fill-rule="evenodd" clip-rule="evenodd" d="M61.1 72H20.1V8H68.1V65C68.1 66.8565 67.3625 68.637 66.0497 69.9497C64.737 71.2625 62.9565 72 61.1 72Z" fill="white"/>
<path d="M61.1 72.85H20.1C19.8693 72.85 19.648 72.7583 19.4849 72.5952C19.3217 72.432 19.23 72.2107 19.23 71.98V8.00001C19.2287 7.88492 19.2502 7.77071 19.2934 7.664C19.3365 7.55729 19.4004 7.4602 19.4813 7.37835C19.5622 7.2965 19.6586 7.23152 19.7648 7.18718C19.871 7.14283 19.9849 7.12 20.1 7.12001H68.1C68.2173 7.11734 68.3339 7.13814 68.4429 7.18117C68.552 7.2242 68.6514 7.28859 68.7353 7.37058C68.8191 7.45256 68.8857 7.55047 68.9312 7.65856C68.9767 7.76665 69.0001 7.88274 69 8.00001V65C68.9947 67.0874 68.1625 69.0876 66.6856 70.5626C65.2087 72.0377 63.2074 72.8674 61.12 72.87L61.1 72.85ZM21 71.1H61.1C61.9041 71.1012 62.7004 70.9437 63.4434 70.6366C64.1865 70.3294 64.8616 69.8786 65.43 69.31C66.5707 68.1641 67.217 66.6168 67.23 65V8.85001H21V71.1Z" fill="#222222"/>
<path fill-rule="evenodd" clip-rule="evenodd" d="M33 19.17C32.9997 19.6367 32.8605 20.0927 32.6 20.48C32.3597 20.8622 32.0118 21.1649 31.6 21.35C31.1685 21.5225 30.6965 21.5676 30.24 21.48C29.7857 21.3896 29.3682 21.1669 29.04 20.84C28.7115 20.5076 28.4858 20.0874 28.39 19.63C28.3005 19.1761 28.3492 18.7058 28.53 18.28C28.709 17.8515 29.0076 17.4835 29.39 17.22C29.7472 16.9801 30.1633 16.8428 30.5931 16.8231C31.0229 16.8034 31.4499 16.9021 31.8274 17.1085C32.205 17.3148 32.5186 17.6208 32.7342 17.9931C32.9498 18.3655 33.0591 18.7898 33.05 19.22" fill="#F8BFB7"/>
<path d="M30.63 22.4C30.4186 22.3999 30.2077 22.3798 30 22.34C29.3735 22.2163 28.7981 21.9086 28.3474 21.4561C27.8967 21.0036 27.5913 20.427 27.47 19.8C27.3392 19.1761 27.402 18.5272 27.65 17.94C27.933 17.2487 28.4476 16.6772 29.1055 16.3236C29.7635 15.9699 30.5239 15.856 31.2567 16.0013C31.9894 16.1467 32.6488 16.5423 33.1219 17.1204C33.595 17.6984 33.8524 18.423 33.85 19.17C33.8543 19.8105 33.6661 20.4376 33.31 20.97C32.9587 21.5023 32.4526 21.9141 31.86 22.15C31.4716 22.3169 31.0529 22.402 30.63 22.4ZM30.63 17.7C30.3381 17.7012 30.053 17.7881 29.81 17.95C29.5692 18.1128 29.3812 18.3425 29.2692 18.6108C29.1573 18.8791 29.1263 19.1743 29.18 19.46C29.2387 19.7482 29.3814 20.0127 29.59 20.22C29.796 20.4243 30.0575 20.5635 30.342 20.6204C30.6264 20.6773 30.9213 20.6493 31.19 20.54C31.463 20.4271 31.6962 20.2357 31.86 19.99C32.02 19.7467 32.1036 19.4611 32.1 19.17C32.1 18.7801 31.9452 18.4062 31.6695 18.1306C31.3938 17.8549 31.0199 17.7 30.63 17.7Z" fill="#222222"/>
<path fill-rule="evenodd" clip-rule="evenodd" d="M33 30.52C33.0045 30.9859 32.8686 31.4424 32.61 31.83C32.3515 32.2154 31.9868 32.5176 31.56 32.7C31.2387 32.8397 30.8902 32.9054 30.5401 32.8924C30.19 32.8793 29.8473 32.7879 29.5373 32.6247C29.2273 32.4615 28.9578 32.2308 28.7489 31.9496C28.5399 31.6684 28.3968 31.3439 28.33 31C28.232 30.5441 28.2774 30.0691 28.46 29.64C28.639 29.2115 28.9376 28.8435 29.32 28.58C29.7767 28.2747 30.325 28.1367 30.8718 28.1896C31.4186 28.2425 31.9303 28.4829 32.32 28.87C32.5362 29.0868 32.7076 29.3442 32.8243 29.6273C32.9409 29.9104 33.0007 30.2138 33 30.52Z" fill="#F8BFB7"/>
<path d="M30.6301 33.76C30.4186 33.7605 30.2076 33.7404 30.0001 33.7C29.3735 33.5726 28.7971 33.267 28.3401 32.82C27.8906 32.3668 27.5846 31.7914 27.4601 31.1654C27.3356 30.5394 27.3982 29.8906 27.6401 29.3C27.8792 28.709 28.2948 28.2062 28.8301 27.86C29.4524 27.4546 30.1939 27.2724 30.9333 27.3432C31.6726 27.4141 32.366 27.7338 32.9001 28.25C33.1986 28.5478 33.4353 28.9016 33.5966 29.2912C33.7579 29.6807 33.8407 30.0983 33.8401 30.52C33.8482 31.1634 33.6615 31.7942 33.3046 32.3297C32.9476 32.8651 32.4371 33.28 31.8401 33.52C31.457 33.6805 31.0454 33.7621 30.6301 33.76ZM30.6301 29.06C30.3381 29.0612 30.053 29.1481 29.8101 29.31C29.5692 29.4728 29.3812 29.7025 29.2693 29.9708C29.1573 30.2391 29.1263 30.5343 29.1801 30.82C29.2387 31.1082 29.3814 31.3727 29.5901 31.58C29.7956 31.7891 30.0613 31.9289 30.3501 31.98C30.635 32.0386 30.931 32.0108 31.2001 31.9C31.4678 31.783 31.6967 31.5922 31.8601 31.35C32.0229 31.1081 32.1068 30.8216 32.1001 30.53C32.1001 30.1401 31.9452 29.7662 31.6695 29.4905C31.3938 29.2149 31.0199 29.06 30.6301 29.06Z" fill="#222222"/>
<path fill-rule="evenodd" clip-rule="evenodd" d="M32.9999 53.23C32.9997 53.6967 32.8604 54.1527 32.5999 54.54C32.3597 54.9222 32.0118 55.2249 31.5999 55.41C31.1684 55.5825 30.6964 55.6276 30.2399 55.54C29.7713 55.4571 29.3389 55.234 28.9999 54.9C28.6714 54.5676 28.4457 54.1474 28.3499 53.69C28.261 53.2361 28.3098 52.766 28.4899 52.34C28.669 51.9115 28.9675 51.5435 29.3499 51.28C29.7034 51.0453 30.1139 50.9106 30.5378 50.8903C30.9616 50.8701 31.383 50.965 31.7573 51.1649C32.1316 51.3649 32.4447 51.6624 32.6635 52.026C32.8823 52.3896 32.9986 52.8057 32.9999 53.23Z" fill="#F8BFB7"/>
<path d="M30.63 56.46C30.4186 56.4599 30.2077 56.4398 30 56.4C29.3735 56.2763 28.7981 55.9686 28.3474 55.5161C27.8967 55.0636 27.5913 54.487 27.47 53.86C27.3392 53.2361 27.402 52.5872 27.65 52C27.8588 51.5144 28.1835 51.0874 28.5957 50.7565C29.0079 50.4256 29.495 50.201 30.0143 50.1022C30.5336 50.0035 31.0692 50.0338 31.5741 50.1903C32.0789 50.3468 32.5377 50.6248 32.91 51C33.4352 51.5307 33.7616 52.226 33.8345 52.969C33.9073 53.712 33.7221 54.4575 33.31 55.08C32.9587 55.6123 32.4526 56.0241 31.86 56.26C31.468 56.4098 31.0494 56.4778 30.63 56.46ZM30.63 51.76C30.3381 51.7612 30.053 51.8481 29.81 52.01C29.5692 52.1728 29.3812 52.4025 29.2692 52.6708C29.1573 52.9391 29.1263 53.2343 29.18 53.52C29.2387 53.8083 29.3814 54.0727 29.59 54.28C29.7969 54.4819 30.0571 54.6207 30.34 54.68C30.625 54.7392 30.9212 54.7114 31.19 54.6C31.4599 54.4868 31.6922 54.2996 31.86 54.06C32.0186 53.8124 32.102 53.5241 32.1 53.23C32.091 52.8537 31.9369 52.4954 31.67 52.23C31.5364 52.0867 31.3757 51.9714 31.1972 51.8907C31.0186 51.81 30.8259 51.7656 30.63 51.76Z" fill="#222222"/>
<path fill-rule="evenodd" clip-rule="evenodd" d="M33 41.88C33.0032 42.3426 32.8673 42.7955 32.61 43.18C32.3515 43.5654 31.9868 43.8676 31.56 44.05C31.2398 44.186 30.8932 44.2488 30.5455 44.2339C30.1979 44.2191 29.8579 44.1268 29.5504 43.964C29.2429 43.8011 28.9756 43.5718 28.768 43.2926C28.5603 43.0134 28.4175 42.6913 28.35 42.35C28.2478 41.8993 28.2862 41.4282 28.46 41C28.6391 40.5715 28.9376 40.2035 29.32 39.94C29.7741 39.6271 30.3241 39.4846 30.873 39.5377C31.4218 39.5907 31.9343 39.8359 32.32 40.23C32.7558 40.6686 33.0002 41.2618 33 41.88Z" fill="#F8BFB7"/>
<path d="M30.6299 45.11C29.7758 45.1095 28.9563 44.7716 28.3499 44.17C27.9005 43.7168 27.5945 43.1414 27.47 42.5154C27.3455 41.8894 27.4081 41.2406 27.6499 40.65C27.8587 40.1644 28.1834 39.7374 28.5956 39.4065C29.0078 39.0756 29.4949 38.851 30.0142 38.7522C30.5335 38.6535 31.0691 38.6837 31.574 38.8403C32.0788 38.9968 32.5376 39.2748 32.9099 39.65C33.2085 39.9478 33.4452 40.3016 33.6065 40.6912C33.7678 41.0807 33.8505 41.4984 33.8499 41.92C33.858 42.5634 33.6714 43.1943 33.3144 43.7297C32.9575 44.2651 32.447 44.68 31.8499 44.92C31.4602 45.0648 31.0453 45.1294 30.6299 45.11ZM30.6299 40.41C30.338 40.4112 30.0529 40.4981 29.8099 40.66C29.5691 40.8228 29.3811 41.0525 29.2691 41.3208C29.1572 41.5891 29.1262 41.8843 29.1799 42.17C29.2386 42.4582 29.3813 42.7227 29.5899 42.93C29.7955 43.1391 30.0612 43.2789 30.3499 43.33C30.6349 43.3886 30.9309 43.3608 31.1999 43.25C31.4677 43.133 31.6966 42.9422 31.8599 42.7C32.0228 42.4581 32.1067 42.1716 32.0999 41.88C32.093 41.5032 31.9386 41.1442 31.6699 40.88C31.537 40.7358 31.3765 40.6199 31.1978 40.5392C31.0191 40.4584 30.826 40.4145 30.6299 40.41Z" fill="#222222"/>
<path fill-rule="evenodd" clip-rule="evenodd" d="M54.0699 20.2H38.8399C38.5681 20.2 38.3074 20.092 38.1152 19.8998C37.9229 19.7076 37.8149 19.4468 37.8149 19.175C37.8149 18.9031 37.9229 18.6424 38.1152 18.4502C38.3074 18.258 38.5681 18.15 38.8399 18.15H54.0699C54.3418 18.15 54.6025 18.258 54.7947 18.4502C54.987 18.6424 55.0949 18.9031 55.0949 19.175C55.0949 19.4468 54.987 19.7076 54.7947 19.8998C54.6025 20.092 54.3418 20.2 54.0699 20.2Z" fill="#222222"/>
<path fill-rule="evenodd" clip-rule="evenodd" d="M59.92 31.55H38.84C38.7077 31.5495 38.5768 31.5227 38.4549 31.4712C38.333 31.4197 38.2226 31.3445 38.13 31.25C37.9452 31.0637 37.8411 30.8123 37.84 30.55C37.8392 30.4184 37.8644 30.2879 37.9142 30.1661C37.964 30.0443 38.0373 29.9334 38.13 29.84C38.2234 29.7473 38.3342 29.674 38.4561 29.6242C38.5779 29.5745 38.7084 29.5492 38.84 29.55H59.92C60.0516 29.5492 60.1821 29.5745 60.3039 29.6242C60.4257 29.674 60.5365 29.7473 60.63 29.84C60.7227 29.9334 60.796 30.0443 60.8458 30.1661C60.8955 30.2879 60.9207 30.4184 60.92 30.55C60.9189 30.8123 60.8147 31.0637 60.63 31.25C60.5374 31.3445 60.4269 31.4197 60.305 31.4712C60.1832 31.5227 60.0523 31.5495 59.92 31.55Z" fill="#222222"/>
<path fill-rule="evenodd" clip-rule="evenodd" d="M54.07 42.91H38.84C38.7077 42.9094 38.5768 42.8826 38.4549 42.8311C38.333 42.7796 38.2226 42.7045 38.13 42.61C37.9452 42.4237 37.8411 42.1723 37.84 41.91C37.8392 41.7784 37.8644 41.6479 37.9142 41.5261C37.964 41.4042 38.0373 41.2934 38.13 41.2C38.2234 41.1073 38.3342 41.034 38.4561 40.9842C38.5779 40.9345 38.7084 40.9092 38.84 40.91H54.07C54.3352 40.91 54.5896 41.0153 54.7771 41.2029C54.9646 41.3904 55.07 41.6448 55.07 41.91C55.0689 42.1723 54.9647 42.4237 54.78 42.61C54.6874 42.7045 54.5769 42.7796 54.455 42.8311C54.3332 42.8826 54.2023 42.9094 54.07 42.91Z" fill="#222222"/>
<path fill-rule="evenodd" clip-rule="evenodd" d="M59.92 54.26H38.84C38.7077 54.2594 38.5768 54.2327 38.455 54.1812C38.3331 54.1297 38.2226 54.0545 38.13 53.96C37.9438 53.7726 37.8392 53.5192 37.8392 53.255C37.8392 52.9908 37.9438 52.7374 38.13 52.55C38.2235 52.4573 38.3343 52.384 38.4561 52.3342C38.578 52.2845 38.7084 52.2592 38.84 52.26H59.92C60.0516 52.2592 60.1821 52.2845 60.3039 52.3342C60.4258 52.384 60.5366 52.4573 60.63 52.55C60.8163 52.7374 60.9208 52.9908 60.9208 53.255C60.9208 53.5192 60.8163 53.7726 60.63 53.96C60.5374 54.0545 60.427 54.1297 60.3051 54.1812C60.1832 54.2327 60.0523 54.2594 59.92 54.26Z" fill="#222222"/>
<path fill-rule="evenodd" clip-rule="evenodd" d="M54.07 65V61H11.89V65C11.89 70.19 14.89 72 20.1 72H61.1C59.2435 72 57.463 71.2625 56.1503 69.9497C54.8375 68.637 54.1 66.8565 54.1 65" fill="#F2F2F2"/>
<path d="M61.1001 72.82H20.1001C14.0001 72.82 11.0001 70.24 11.0001 64.94V61C10.9987 60.8849 11.0203 60.7707 11.0634 60.664C11.1065 60.5573 11.1704 60.4602 11.2513 60.3783C11.3322 60.2965 11.4286 60.2315 11.5348 60.1872C11.641 60.1428 11.755 60.12 11.8701 60.12H54.0701C54.1852 60.12 54.2991 60.1428 54.4053 60.1872C54.5115 60.2315 54.6079 60.2965 54.6888 60.3783C54.7697 60.4602 54.8336 60.5573 54.8767 60.664C54.9199 60.7707 54.9414 60.8849 54.9401 61V64.69C54.9496 64.763 54.9496 64.837 54.9401 64.91C54.9374 65.7149 55.0938 66.5124 55.4003 67.2566C55.7069 68.0009 56.1574 68.6773 56.7261 69.2469C57.2948 69.8165 57.9704 70.2682 58.7142 70.5759C59.4579 70.8836 60.2552 71.0413 61.0601 71.04C61.1828 71.0269 61.307 71.0397 61.4245 71.0777C61.5419 71.1157 61.6501 71.1779 61.7419 71.2605C61.8338 71.343 61.9072 71.4439 61.9575 71.5567C62.0078 71.6694 62.0337 71.7915 62.0337 71.915C62.0337 72.0385 62.0078 72.1605 61.9575 72.2733C61.9072 72.3861 61.8338 72.487 61.7419 72.5695C61.6501 72.6521 61.5419 72.7143 61.4245 72.7523C61.307 72.7903 61.1828 72.8031 61.0601 72.79L61.1001 72.82ZM12.7701 61.9V64.9C12.7701 69.26 14.8901 71.03 20.1001 71.03H56.1501C55.9317 70.8568 55.7246 70.6697 55.5301 70.47C54.1094 69.0573 53.286 67.1527 53.2301 65.15C53.2196 65.067 53.2196 64.983 53.2301 64.9V61.9H12.7701Z" fill="#222222"/>
<path d="M68.12 7.09999C68.3523 7.10434 68.5741 7.19736 68.74 7.35999C68.8248 7.44326 68.8915 7.54301 68.9363 7.65308C68.981 7.76315 69.0027 7.88121 69 7.99999V65C69 66.0361 68.7959 67.0621 68.3994 68.0194C68.0029 68.9766 67.4217 69.8464 66.6891 70.5791C65.9564 71.3117 65.0867 71.8929 64.1294 72.2894C63.1721 72.6859 62.1461 72.89 61.11 72.89H20.11C14 72.87 11 70.28 11 65V61C10.9986 60.8839 11.019 60.7686 11.06 60.66C11.106 60.553 11.1703 60.4549 11.25 60.37C11.3336 60.2887 11.4321 60.2242 11.54 60.18C11.6475 60.1352 11.7636 60.1147 11.88 60.12H19.21V7.99999C19.2082 7.8829 19.2321 7.76683 19.28 7.65999C19.3218 7.55372 19.3867 7.45808 19.47 7.37999C19.55 7.29894 19.6452 7.23439 19.75 7.18999C19.8584 7.14702 19.9735 7.12332 20.09 7.11999H68.09L68.12 7.09999ZM68.12 5.34999H20.12C19.7713 5.34733 19.4255 5.41406 19.1028 5.54629C18.7801 5.67852 18.4869 5.87362 18.2403 6.12022C17.9936 6.36683 17.7985 6.66002 17.6663 6.98274C17.5341 7.30545 17.4674 7.65125 17.47 7.99999V58.4H11.89C11.5477 58.3994 11.2083 58.4638 10.89 58.59C10.5711 58.7252 10.2822 58.9224 10.04 59.17C9.79537 59.4126 9.60159 59.7016 9.47002 60.02C9.33972 60.3374 9.27182 60.6769 9.27002 61.02V65C9.27002 69.41 11.15 74.7 20.11 74.7H61.11C63.6721 74.6868 66.1245 73.6583 67.9296 71.8401C69.7347 70.0218 70.7453 67.5621 70.74 65V7.99999C70.7348 7.30767 70.4567 6.64535 69.9662 6.15673C69.4757 5.66811 68.8124 5.3926 68.12 5.38999V5.34999Z" fill="white"/>
</svg>
